<svg width="2010" height="823" viewBox="0 0 2010 823" fill="none" xmlns="http://www.w3.org/2000/svg">
<path d="M407.35 1.49818C409.788 -0.834073 413.667 0.205445 415.612 2.64431C492.03 79.0355 568.355 155.533 644.759 231.951C647.998 234.51 647.278 240.094 643.36 241.573C556.4 285.699 469.334 329.639 382.348 373.739C379.589 375.644 375.271 375.578 373.499 372.379C372.126 369.114 372.406 365.422 371.913 361.971C362.33 266.069 352.722 170.166 343.099 74.2644C342.646 69.6932 343.859 64.7488 347.297 61.537C367.355 41.5596 387.172 21.3423 407.35 1.49818Z" fill="#3A3A3A"/>
<path d="M317.698 91.8962C323.295 88.9509 330.865 93.3222 330.998 99.6793C344.166 234.23 357.506 368.781 370.567 503.358C370.82 506.464 371.446 509.929 369.58 512.687C366.888 517.219 360.238 518.578 356.08 515.273C271.253 454.861 186.466 394.382 101.638 333.944C99.0395 332.051 96.2942 330.345 93.8819 328.226C90.257 325.028 90.0704 318.857 93.3755 315.366C167.115 241.573 240.934 167.861 314.726 94.1218C315.606 93.2422 316.592 92.4959 317.698 91.8962Z" fill="#3A3A3A"/>
<path d="M655.528 252.342C659.073 250.289 663.884 250.796 666.736 253.808C717.246 304.198 767.556 354.787 818.025 405.204C822.263 408.989 821.73 416.119 817.359 419.584C737.956 498.787 658.726 578.164 579.336 657.38C576.378 660.099 573.779 664.07 569.408 664.364C564.716 664.95 561.265 661.245 557.693 658.886C501.546 618.878 445.372 578.897 389.211 538.915C384.64 492.843 380.136 446.758 375.684 400.686C375.138 396.675 377.59 392.756 381.242 391.184C472.666 344.899 564.09 298.6 655.528 252.342Z" fill="#3A3A3A"/>
<path d="M72.5186 337.116C77.9827 334.53 82.8738 338.955 87.0052 341.967C240.96 451.862 394.929 561.758 548.937 671.56C554.348 674.639 554.935 682.875 550.15 686.78C505.931 730.973 461.764 775.219 417.505 819.372C413.987 823.196 407.403 823.116 403.991 819.212C272.266 687.499 140.554 555.774 8.82819 424.062C6.64254 421.836 4.28361 419.771 2.35118 417.332C-0.380888 413.773 0.272146 408.296 3.56395 405.311C24.1411 384.614 44.7715 363.956 65.4019 343.313C67.6809 341.167 69.6533 338.542 72.5186 337.116Z" fill="#3A3A3A"/>
<path d="M1034.28 337.965C1042.85 335.033 1052.05 334.833 1061 334.367C1076.53 333.941 1092.12 333.701 1107.62 335.1C1114.88 336.033 1123.15 336.926 1128.4 342.643C1133.61 348.734 1132.92 357.316 1133.28 364.82C1124.68 364.82 1116.1 364.833 1107.51 364.806C1106.97 362.474 1107.65 359.342 1105.42 357.756C1102.12 355.824 1098.12 355.984 1094.43 355.677C1082.81 355.331 1071.14 355.104 1059.54 355.797C1055.4 356.17 1050.18 356.85 1048.31 361.168C1046.33 366.565 1046.97 372.443 1046.81 378.08C1047.01 384.011 1046.52 390.208 1048.57 395.885C1050.42 400.136 1055.67 400.563 1059.7 400.71C1072.62 401.003 1085.59 401.336 1098.5 400.643C1101.44 400.27 1105.17 400.323 1107.05 397.631C1108.29 394.979 1107.91 391.9 1108.26 389.075C1096.88 388.968 1085.51 389.062 1074.13 389.035C1074.13 383.371 1074.13 377.707 1074.13 372.056C1093.87 372.03 1113.6 372.016 1133.34 372.056C1133.36 381.652 1133.18 391.247 1132.53 400.829C1132.2 406.147 1130.1 411.598 1125.79 414.943C1121.08 418.675 1114.91 419.527 1109.15 420.3C1095.41 421.833 1081.55 421.38 1067.76 421.46C1058.36 421.3 1048.87 421.38 1039.63 419.541C1032.72 418.088 1025.27 414.17 1023.18 406.933C1020.98 399.297 1021.15 391.261 1020.94 383.398C1021.03 372.456 1020.39 361.301 1023.11 350.613C1024.49 344.882 1028.6 339.804 1034.28 337.965Z" fill="#3A3A3A"/>
<path d="M1268.31 335.06C1282.71 333.794 1297.21 334.114 1311.66 334.074C1322.27 334.314 1332.97 334.007 1343.44 335.913C1349.16 336.953 1354.96 340.045 1357.52 345.509C1360.32 351.519 1360.64 358.276 1361.05 364.793C1361.45 375.921 1361.56 387.116 1360.46 398.231C1359.76 404.188 1358.52 410.758 1353.79 414.93C1348.79 419.328 1341.86 420.127 1335.5 420.714C1320.43 421.807 1305.29 421.407 1290.19 421.433C1280.39 421.153 1270.45 421.433 1260.86 419.221C1254.67 417.928 1249.18 413.424 1247.45 407.24C1244.41 396.925 1244.94 386.01 1244.74 375.375C1245.09 365.406 1244.53 354.931 1248.58 345.589C1252.01 338.085 1260.76 335.647 1268.31 335.06ZM1277.47 357.41C1272.05 358.902 1271.21 365.406 1270.9 370.164C1270.81 377.614 1269.95 385.303 1271.85 392.607C1273.56 398.004 1279.97 398.791 1284.8 399.044C1297.31 399.51 1309.86 399.603 1322.36 398.964C1326.92 398.724 1332.8 397.551 1334.2 392.447C1336.06 385.25 1335.27 377.68 1335.11 370.337C1334.77 365.499 1333.96 358.916 1328.42 357.383C1320.24 355.704 1311.82 356.357 1303.53 356.157C1294.84 356.357 1286.03 355.651 1277.47 357.41Z" fill="#3A3A3A"/>
<path d="M1965.75 334.86C1978.96 334.833 1992.17 334.807 2005.39 334.873C1989.24 349.08 1972.75 362.887 1956.49 376.961C1974.16 391.407 1991.97 405.707 2009.6 420.234C1996.5 420.247 1983.41 420.22 1970.33 420.26C1957.61 409.465 1944.95 398.591 1932.22 387.809C1927.57 387.809 1922.93 387.809 1918.31 387.809C1918.28 398.604 1918.27 409.412 1918.32 420.207C1909.65 420.274 1900.97 420.234 1892.31 420.234C1892.31 391.954 1892.31 363.673 1892.31 335.393C1900.97 335.393 1909.63 335.393 1918.3 335.393C1918.3 345.642 1918.28 355.89 1918.3 366.152C1922.93 366.152 1927.57 366.152 1932.22 366.139C1943.39 355.704 1954.61 345.322 1965.75 334.86Z" fill="#3A3A3A"/>
<path d="M1143.66 335.393C1174.98 335.407 1206.29 335.38 1237.61 335.393C1237.61 342.043 1237.6 348.707 1237.63 355.357C1214.82 355.424 1192.01 355.357 1169.19 355.397C1169.19 359.462 1169.19 363.527 1169.21 367.605C1190.86 367.605 1212.52 367.605 1234.16 367.605C1234.17 373.855 1234.17 380.106 1234.16 386.37C1212.52 386.37 1190.86 386.37 1169.21 386.37C1169.19 390.834 1169.19 395.312 1169.21 399.803C1192.15 399.803 1215.1 399.83 1238.05 399.79C1238.07 406.613 1238.08 413.437 1238.04 420.26C1206.59 420.22 1175.14 420.234 1143.67 420.247C1143.63 391.967 1143.66 363.673 1143.66 335.393Z" fill="#3A3A3A"/>
<path d="M1369.21 335.407C1384.92 335.46 1400.63 335.22 1416.33 335.526C1424.45 353.851 1432.94 372.003 1441.25 390.234C1449.63 371.95 1458.04 353.691 1466.43 335.407C1482.01 335.38 1497.57 335.393 1513.15 335.393C1513.17 363.66 1513.11 391.927 1513.18 420.207C1504.65 420.287 1496.13 420.207 1487.62 420.26C1487.67 399.097 1488.1 377.947 1488.15 356.797C1487.11 356.81 1485.02 356.85 1483.97 356.863C1473.33 377.987 1462.74 399.124 1452.09 420.221C1444.9 420.261 1437.72 420.22 1430.55 420.247C1419.92 399.177 1409.24 378.12 1398.77 356.957C1397.23 356.903 1395.73 356.837 1394.22 356.757C1394.25 377.907 1394.59 399.057 1394.79 420.207C1386.26 420.274 1377.75 420.22 1369.22 420.247C1369.22 391.967 1369.23 363.687 1369.21 335.407Z" fill="#3A3A3A"/>
<path d="M1522.69 335.393C1554.01 335.38 1585.35 335.393 1616.66 335.393C1616.65 342.043 1616.65 348.707 1616.66 355.384C1593.86 355.397 1571.06 355.371 1548.26 355.397C1548.24 359.449 1548.24 363.527 1548.26 367.592C1569.91 367.605 1591.56 367.605 1613.21 367.605C1613.21 373.855 1613.21 380.106 1613.21 386.37C1591.56 386.383 1569.9 386.343 1548.24 386.383C1548.24 390.847 1548.24 395.325 1548.26 399.803C1571.21 399.83 1594.17 399.79 1617.12 399.817C1617.1 406.613 1617.1 413.424 1617.12 420.234C1585.64 420.26 1554.17 420.22 1522.71 420.247C1522.69 391.967 1522.71 363.673 1522.69 335.393Z" fill="#3A3A3A"/>
<path d="M1623.65 335.406C1657.9 335.38 1692.14 335.393 1726.39 335.393C1726.37 342.603 1726.39 349.826 1726.39 357.05C1713.79 357.05 1701.21 357.036 1688.63 357.063C1688.6 378.12 1688.66 399.19 1688.62 420.26C1679.54 420.22 1670.48 420.247 1661.4 420.234C1661.4 399.163 1661.43 378.107 1661.4 357.036C1648.81 357.063 1636.24 357.036 1623.66 357.05C1623.65 349.826 1623.66 342.616 1623.65 335.406Z" fill="#3A3A3A"/>
<path d="M1734.49 335.393C1763.21 335.5 1791.93 335.167 1820.64 335.566C1828.7 335.287 1837.35 340.418 1838.88 348.747C1840.52 357.929 1840.64 367.538 1838.88 376.721C1837.61 382.918 1831.59 386.383 1825.78 387.382C1830.27 388.235 1835.74 389.475 1837.52 394.313C1840.35 402.642 1838.85 411.624 1839.2 420.26C1830.7 420.22 1822.18 420.247 1813.68 420.234C1813.4 414.33 1814.39 408.079 1812.13 402.469C1810.6 399.084 1806.54 398.844 1803.34 398.83C1789.01 398.564 1774.68 398.75 1760.37 398.71C1760.37 405.881 1760.37 413.064 1760.37 420.247C1751.73 420.234 1743.11 420.234 1734.49 420.247C1734.49 391.967 1734.5 363.673 1734.49 335.393ZM1760.37 356.717C1760.37 363.593 1760.37 370.484 1760.37 377.36C1775.15 377.307 1789.92 377.52 1804.7 377.24C1807.64 377.107 1811.52 377.227 1813.04 374.082C1814.63 370.071 1814.37 365.486 1813.57 361.341C1812.95 357.863 1809.19 356.677 1806.12 356.823C1790.88 356.557 1775.62 356.783 1760.37 356.717Z" fill="#3A3A3A"/>
<path d="M1853.33 335.393C1862.39 335.393 1871.47 335.38 1880.54 335.393C1880.53 363.687 1880.55 391.967 1880.53 420.26C1871.45 420.207 1862.38 420.274 1853.31 420.22C1853.34 391.94 1853.31 363.66 1853.33 335.393Z" fill="#3A3A3A"/>
<path d="M1023.17 444.223C1037.85 444.223 1052.54 444.249 1067.23 444.209C1067.23 445.795 1067.23 447.395 1067.27 449.02C1054.46 448.994 1041.66 449.047 1028.87 448.98C1028.8 453.685 1028.8 458.389 1028.83 463.107C1037.8 463.121 1046.78 463.107 1055.76 463.107C1055.8 464.307 1055.88 466.706 1055.92 467.892C1046.89 468.118 1037.85 467.932 1028.83 468.012C1028.82 473.183 1028.82 478.353 1028.83 483.538C1041.85 483.564 1054.89 483.538 1067.92 483.551C1067.91 485.204 1067.91 486.87 1067.92 488.549C1052.99 488.549 1038.08 488.549 1023.15 488.549C1023.15 473.769 1023.15 459.002 1023.17 444.223Z" fill="#3A3A3A"/>
<path d="M1154.45 448.661C1155.15 445.076 1159.25 444.289 1162.33 444.289C1174.2 444.129 1186.09 444.276 1197.98 444.236C1197.97 445.422 1197.97 447.821 1197.97 449.007C1185.46 449.234 1172.92 448.581 1160.46 449.327C1159.16 453.378 1159.02 458.843 1160.5 462.747C1171.76 463.76 1183.17 462.561 1194.47 463.307C1197.13 463.36 1199.95 464.96 1200.22 467.838C1200.71 473.209 1200.78 478.687 1200.18 484.057C1199.68 487.403 1195.97 488.522 1193.06 488.482C1180.04 488.642 1167.01 488.495 1153.99 488.549C1153.97 486.856 1153.97 485.19 1153.99 483.551C1167.51 483.391 1181.07 483.871 1194.59 483.284C1194.99 478.287 1194.97 473.276 1194.61 468.291C1183.47 467.598 1172.3 468.265 1161.14 467.932C1158.22 467.932 1154.77 466.559 1154.36 463.294C1153.76 458.456 1153.67 453.472 1154.45 448.661Z" fill="#3A3A3A"/>
<path d="M1287.91 450.3C1287.95 446.928 1290.8 444.356 1294.15 444.436C1307.15 443.929 1320.2 444.369 1333.24 444.236C1333.24 445.422 1333.24 447.808 1333.24 449.007C1320 449.22 1306.74 448.594 1293.52 449.34C1293.27 460.082 1293.31 470.837 1293.45 481.592C1293.31 484.191 1296.68 483.258 1298.29 483.564C1309.94 483.551 1321.59 483.538 1333.24 483.551C1333.22 485.19 1333.22 486.856 1333.24 488.549C1321.11 488.535 1308.99 488.549 1296.87 488.549C1294.08 488.442 1290.51 488.469 1288.87 485.777C1287.3 482.552 1287.79 478.82 1287.67 475.355C1287.87 466.999 1287.38 458.629 1287.91 450.3Z" fill="#3A3A3A"/>
<path d="M1413.84 488.575C1422.78 473.769 1431.78 459.003 1440.75 444.209C1442.41 444.223 1444.09 444.236 1445.78 444.263C1454.7 459.042 1463.68 473.782 1472.64 488.535C1470.45 488.522 1468.28 488.535 1466.12 488.562C1463.99 484.99 1461.84 481.445 1459.72 477.887C1448.65 477.887 1437.57 477.874 1426.5 477.9C1424.39 481.405 1422.3 484.924 1420.26 488.482C1418.12 488.509 1415.97 488.522 1413.84 488.575ZM1429.38 473.103C1438.53 473.116 1447.7 473.103 1456.87 473.103C1452.3 465.4 1447.69 457.723 1443.1 450.033C1438.51 457.71 1433.94 465.4 1429.38 473.103Z" fill="#3A3A3A"/>
<path d="M1555.47 444.223C1557.35 444.223 1559.24 444.223 1561.13 444.236C1561.13 457.336 1561.14 470.437 1561.13 483.538C1573.19 483.564 1585.27 483.551 1597.33 483.538C1597.31 485.19 1597.31 486.869 1597.33 488.549C1583.37 488.535 1569.42 488.549 1555.47 488.549C1555.45 473.769 1555.47 459.002 1555.47 444.223Z" fill="#3A3A3A"/>
<path d="M1675.13 488.562C1684.05 473.756 1693.06 459.002 1702.01 444.223C1703.68 444.223 1705.36 444.236 1707.06 444.249C1715.96 459.042 1724.96 473.769 1733.9 488.535C1731.72 488.522 1729.56 488.535 1727.4 488.562C1725.27 484.99 1723.12 481.432 1720.98 477.887C1709.91 477.887 1698.85 477.874 1687.8 477.887C1685.67 481.392 1683.58 484.897 1681.57 488.469C1679.41 488.509 1677.25 488.509 1675.13 488.562ZM1690.66 473.103C1699.83 473.116 1708.99 473.103 1718.18 473.103C1713.55 465.426 1708.99 457.71 1704.37 450.033C1699.8 457.723 1695.2 465.399 1690.66 473.103Z" fill="#3A3A3A"/>
<path d="M1816.68 444.236C1829.98 444.303 1843.29 444.076 1856.59 444.329C1860.03 444.129 1863.91 446.022 1864 449.927C1864.74 457.47 1864.1 465.08 1864.32 472.663C1864.15 476.967 1864.92 481.552 1863.19 485.643C1861.72 488.455 1858.05 488.415 1855.31 488.549C1842.43 488.562 1829.55 488.535 1816.68 488.549C1816.66 473.769 1816.68 459.002 1816.68 444.236ZM1822.34 449.007C1822.34 460.522 1822.33 472.023 1822.34 483.538C1834.35 483.444 1846.36 483.778 1858.35 483.351C1858.84 472.236 1858.83 461.068 1858.41 449.967L1857.63 449.287C1845.89 448.621 1834.1 449.207 1822.34 449.007Z" fill="#3A3A3A"/>
<path d="M1946.42 488.535C1955.37 473.756 1964.32 458.963 1973.33 444.209C1974.56 444.209 1977.03 444.223 1978.27 444.223C1987.28 458.989 1996.25 473.782 2005.19 488.589C2002.92 488.522 2000.7 488.482 1998.49 488.429C1996.49 484.857 1994.4 481.365 1992.29 477.887C1981.21 477.887 1970.14 477.887 1959.08 477.887C1956.95 481.445 1954.83 485.004 1952.69 488.562C1950.59 488.535 1948.5 488.535 1946.42 488.535ZM1961.94 473.103C1971.1 473.116 1980.27 473.103 1989.44 473.103C1984.88 465.413 1980.24 457.776 1975.72 450.087C1970.99 457.67 1966.51 465.413 1961.94 473.103Z" fill="#3A3A3A"/>
</svg>
